<svg xmlns="http://www.w3.org/2000/svg" xmlns:xlink="http://www.w3.org/1999/xlink" width="52.1465" height="38.04"><path fill="#000" d="M14.87 28.82L7.80 28.82C8.65 27.77 9.16 25.52 9.45 22.13C9.70 18.86 9.86 14.49 9.95 8.75L14.87 8.75ZM16.77 33.89L18.01 33.89L18.01 28.82L16.45 28.82L16.45 7.45L8.53 7.45C8.43 13.76 8.34 18.77 8.02 22.13C7.70 25.36 7.16 27.90 6.05 28.82L5.39 28.82L5.39 33.89L6.63 33.89L6.85 30.11L16.55 30.11ZM27.74 30.11L29.16 30.11L29.16 14.14L27.86 14.14L22.67 25.36C22.35 26.06 22.03 26.75 21.81 27.48L21.71 27.48C21.78 26.79 21.84 26.09 21.84 25.23L21.84 14.14L20.45 14.14L20.45 30.11L21.71 30.11L26.91 18.86C27.26 18.16 27.55 17.50 27.77 16.80L27.86 16.80C27.80 17.47 27.74 18.16 27.74 18.99ZM37.22 29.13C34.74 29.13 33.63 26.53 33.63 22.16C33.63 17.66 34.77 15.09 37.22 15.09C38.58 15.09 39.59 15.91 40.29 16.90L40.70 15.31C40.01 14.46 38.86 13.82 37.22 13.82C33.95 13.82 32.14 16.90 32.14 22.16C32.14 27.36 33.98 30.43 37.18 30.43C39.69 30.43 40.86 28.66 40.86 28.66L40.39 27.42C40.39 27.42 39.28 29.13 37.22 29.13ZM44.76 21.84L50.31 30.11L51.96 30.11L46.31 21.56L51.58 14.14L50.12 14.14L44.76 21.65L44.76 14.14L43.27 14.14L43.27 30.11L44.76 30.11Z"/></svg>