<svg width="288" height="59" viewBox="0 0 288 59" fill="none" xmlns="http://www.w3.org/2000/svg">
<rect y="12" width="7" height="35" rx="3.5" fill="#03E577"/>
<rect x="39" y="12" width="7" height="35" rx="3.5" fill="#03E577"/>
<rect x="13" width="7" height="59" rx="3.5" fill="#03E577"/>
<rect x="26" width="7" height="59" rx="3.5" fill="#03E577"/>
<path d="M79.817 41.468C86.837 41.468 90.23 37.88 90.23 33.122C90.23 23.411 75.293 26.18 75.293 22.046C75.293 20.486 76.619 19.433 78.998 19.433C81.65 19.433 84.458 20.33 86.564 22.28L89.645 18.224C87.071 15.845 83.639 14.597 79.505 14.597C73.382 14.597 69.638 18.185 69.638 22.514C69.638 32.303 84.614 29.144 84.614 33.746C84.614 35.228 83.132 36.632 80.09 36.632C76.502 36.632 73.655 35.033 71.822 33.122L68.819 37.334C71.237 39.791 74.825 41.468 79.817 41.468ZM102.578 41.468C108.818 41.468 112.562 36.944 112.562 31.562C112.562 26.219 108.818 21.695 102.578 21.695C96.3768 21.695 92.6328 26.219 92.6328 31.562C92.6328 36.944 96.3768 41.468 102.578 41.468ZM102.578 37.061C99.4968 37.061 97.7808 34.526 97.7808 31.562C97.7808 28.637 99.4968 26.102 102.578 26.102C105.659 26.102 107.414 28.637 107.414 31.562C107.414 34.526 105.659 37.061 102.578 37.061ZM133.903 41V22.163H128.95V34.916C128.092 36.008 126.571 37.061 124.66 37.061C122.554 37.061 121.189 36.203 121.189 33.59V22.163H116.236V35.54C116.236 39.206 118.186 41.468 122.32 41.468C125.401 41.468 127.663 40.064 128.95 38.621V41H133.903ZM156.488 41V27.701C156.488 24.035 154.499 21.695 150.365 21.695C147.284 21.695 144.983 23.177 143.774 24.62V22.163H138.821V41H143.774V28.325C144.593 27.194 146.114 26.102 148.064 26.102C150.17 26.102 151.535 26.999 151.535 29.612V41H156.488ZM179.346 41V14.987H174.354V24.581C172.872 22.67 170.766 21.695 168.543 21.695C163.746 21.695 160.197 25.439 160.197 31.601C160.197 37.88 163.785 41.468 168.543 41.468C170.805 41.468 172.872 40.454 174.354 38.582V41H179.346ZM170.064 37.061C167.256 37.061 165.306 34.838 165.306 31.601C165.306 28.325 167.256 26.102 170.064 26.102C171.741 26.102 173.535 26.999 174.354 28.247V34.916C173.535 36.164 171.741 37.061 170.064 37.061ZM212.611 41V27.389C212.611 23.528 210.544 21.695 207.073 21.695C204.187 21.695 201.691 23.411 200.599 25.127C199.897 22.982 198.142 21.695 195.373 21.695C192.487 21.695 189.991 23.489 189.211 24.62V22.163H184.258V41H189.211V28.325C189.952 27.272 191.395 26.102 193.111 26.102C195.139 26.102 195.919 27.35 195.919 29.105V41H200.911V28.286C201.613 27.272 203.056 26.102 204.811 26.102C206.839 26.102 207.619 27.35 207.619 29.105V41H212.611ZM235.136 41V22.163H230.183V34.916C229.325 36.008 227.804 37.061 225.893 37.061C223.787 37.061 222.422 36.203 222.422 33.59V22.163H217.469V35.54C217.469 39.206 219.419 41.468 223.553 41.468C226.634 41.468 228.896 40.064 230.183 38.621V41H235.136ZM246.84 41.468C252.066 41.468 254.991 38.855 254.991 35.423C254.991 27.818 243.837 30.158 243.837 27.35C243.837 26.297 245.007 25.478 246.801 25.478C249.102 25.478 251.247 26.453 252.378 27.662L254.367 24.269C252.495 22.787 249.96 21.695 246.762 21.695C241.809 21.695 239.04 24.464 239.04 27.623C239.04 35.033 250.233 32.498 250.233 35.618C250.233 36.788 249.219 37.646 247.074 37.646C244.734 37.646 241.926 36.359 240.561 35.072L238.416 38.543C240.405 40.376 243.564 41.468 246.84 41.468ZM267.493 41.468C270.418 41.468 273.382 40.571 275.254 38.855L273.07 35.657C271.861 36.827 269.638 37.529 268.039 37.529C264.841 37.529 262.93 35.54 262.618 33.161H276.619V32.069C276.619 25.907 272.797 21.695 267.181 21.695C261.448 21.695 257.431 26.102 257.431 31.562C257.431 37.607 261.76 41.468 267.493 41.468ZM271.822 29.807H262.54C262.774 27.935 264.1 25.634 267.181 25.634C270.457 25.634 271.705 28.013 271.822 29.807ZM282.579 41.429C284.295 41.429 285.738 39.986 285.738 38.27C285.738 36.554 284.295 35.111 282.579 35.111C280.863 35.111 279.42 36.554 279.42 38.27C279.42 39.986 280.863 41.429 282.579 41.429Z" fill="#121212"/>
</svg>
