<svg width="286" height="59" viewBox="0 0 286 59" fill="none" xmlns="http://www.w3.org/2000/svg">
<rect y="12" width="7" height="35" rx="3.5" fill="#03E577"/>
<rect x="39" y="12" width="7" height="35" rx="3.5" fill="#03E577"/>
<rect x="13" width="7" height="59" rx="3.5" fill="#03E577"/>
<rect x="26" width="7" height="59" rx="3.5" fill="#03E577"/>
<path d="M79.8183 41.4677C86.8383 41.4677 90.2313 37.8797 90.2313 33.1217C90.2313 23.4107 75.2943 26.1797 75.2943 22.0457C75.2943 20.4857 76.6203 19.4327 78.9993 19.4327C81.6513 19.4327 84.4593 20.3297 86.5653 22.2797L89.6463 18.2237C87.0723 15.8447 83.6403 14.5967 79.5063 14.5967C73.3833 14.5967 69.6393 18.1847 69.6393 22.5137C69.6393 32.3027 84.6153 29.1437 84.6153 33.7457C84.6153 35.2277 83.1333 36.6317 80.0913 36.6317C76.5033 36.6317 73.6563 35.0327 71.8233 33.1217L68.8203 37.3337C71.2383 39.7907 74.8263 41.4677 79.8183 41.4677Z" fill="#121212"/>
<path d="M102.579 41.4677C108.819 41.4677 112.563 36.9437 112.563 31.5617C112.563 26.2187 108.819 21.6947 102.579 21.6947C96.3781 21.6947 92.6341 26.2187 92.6341 31.5617C92.6341 36.9437 96.3781 41.4677 102.579 41.4677ZM102.579 37.0607C99.4981 37.0607 97.7821 34.5257 97.7821 31.5617C97.7821 28.6367 99.4981 26.1017 102.579 26.1017C105.66 26.1017 107.415 28.6367 107.415 31.5617C107.415 34.5257 105.66 37.0607 102.579 37.0607Z" fill="#121212"/>
<path d="M133.905 40.9997V22.1627H128.952V34.9157C128.094 36.0077 126.573 37.0607 124.662 37.0607C122.556 37.0607 121.191 36.2027 121.191 33.5897V22.1627H116.238V35.5397C116.238 39.2057 118.188 41.4677 122.322 41.4677C125.403 41.4677 127.665 40.0637 128.952 38.6207V40.9997H133.905Z" fill="#121212"/>
<path d="M156.49 40.9997V27.7007C156.49 24.0347 154.501 21.6947 150.367 21.6947C147.286 21.6947 144.985 23.1767 143.776 24.6197V22.1627H138.823V40.9997H143.776V28.3247C144.595 27.1937 146.116 26.1017 148.066 26.1017C150.172 26.1017 151.537 26.9987 151.537 29.6117V40.9997H156.49Z" fill="#121212"/>
<path d="M179.348 40.9997V14.9867H174.356V24.5807C172.874 22.6697 170.768 21.6947 168.545 21.6947C163.748 21.6947 160.199 25.4387 160.199 31.6007C160.199 37.8797 163.787 41.4677 168.545 41.4677C170.807 41.4677 172.874 40.4537 174.356 38.5817V40.9997H179.348ZM170.066 37.0607C167.258 37.0607 165.308 34.8377 165.308 31.6007C165.308 28.3247 167.258 26.1017 170.066 26.1017C171.743 26.1017 173.537 26.9987 174.356 28.2467V34.9157C173.537 36.1637 171.743 37.0607 170.066 37.0607Z" fill="#121212"/>
<path d="M212.612 40.9997V27.3887C212.612 23.5277 210.545 21.6947 207.074 21.6947C204.188 21.6947 201.692 23.4107 200.6 25.1267C199.898 22.9817 198.143 21.6947 195.374 21.6947C192.488 21.6947 189.992 23.4887 189.212 24.6197V22.1627H184.259V40.9997H189.212V28.3247C189.953 27.2717 191.396 26.1017 193.112 26.1017C195.14 26.1017 195.92 27.3497 195.92 29.1047V40.9997H200.912V28.2857C201.614 27.2717 203.057 26.1017 204.812 26.1017C206.84 26.1017 207.62 27.3497 207.62 29.1047V40.9997H212.612Z" fill="#121212"/>
<path d="M235.137 40.9997V22.1627H230.184V34.9157C229.326 36.0077 227.805 37.0607 225.894 37.0607C223.788 37.0607 222.423 36.2027 222.423 33.5897V22.1627H217.47V35.5397C217.47 39.2057 219.42 41.4677 223.554 41.4677C226.635 41.4677 228.897 40.0637 230.184 38.6207V40.9997H235.137Z" fill="#121212"/>
<path d="M246.841 41.4677C252.067 41.4677 254.992 38.8547 254.992 35.4227C254.992 27.8177 243.838 30.1577 243.838 27.3497C243.838 26.2967 245.008 25.4777 246.802 25.4777C249.103 25.4777 251.248 26.4527 252.379 27.6617L254.368 24.2687C252.496 22.7867 249.961 21.6947 246.763 21.6947C241.81 21.6947 239.041 24.4637 239.041 27.6227C239.041 35.0327 250.234 32.4977 250.234 35.6177C250.234 36.7877 249.22 37.6457 247.075 37.6457C244.735 37.6457 241.927 36.3587 240.562 35.0717L238.417 38.5427C240.406 40.3757 243.565 41.4677 246.841 41.4677Z" fill="#121212"/>
<path d="M267.494 41.4677C270.419 41.4677 273.383 40.5707 275.255 38.8547L273.071 35.6567C271.862 36.8267 269.639 37.5287 268.04 37.5287C264.842 37.5287 262.931 35.5397 262.619 33.1607H276.62V32.0687C276.62 25.9067 272.798 21.6947 267.182 21.6947C261.449 21.6947 257.432 26.1017 257.432 31.5617C257.432 37.6067 261.761 41.4677 267.494 41.4677ZM271.823 29.8067H262.541C262.775 27.9347 264.101 25.6337 267.182 25.6337C270.458 25.6337 271.706 28.0127 271.823 29.8067Z" fill="#121212"/>
<path d="M282.58 41.4287C284.296 41.4287 285.739 39.9857 285.739 38.2697C285.739 36.5537 284.296 35.1107 282.58 35.1107C280.864 35.1107 279.421 36.5537 279.421 38.2697C279.421 39.9857 280.864 41.4287 282.58 41.4287Z" fill="#121212"/>
</svg>
